<svg xmlns="http://www.w3.org/2000/svg" version="1.1" xmlns:xlink="http://www.w3.org/1999/xlink" xmlns:svgjs="http://svgjs.dev/svgjs" width="1440" height="560" preserveAspectRatio="none" viewBox="0 0 1440 560">
    <g mask="url(&quot;#SvgjsMask1037&quot;)" fill="none">
        <g transform="translate(0, 22.4)" stroke-linecap="round">
            <path d="M382.5 248.465 L382.5 311.545" stroke-width="18.75" stroke="rgba(58, 124, 195, 0.53)"></path>
            <path d="M407.5 212.755 L407.5 250.255" stroke-width="18.75" stroke="rgba(221, 17, 51, 0.46)"></path>
            <path d="M407.5 278.38 L407.5 297.13" stroke-width="18.75" stroke="rgba(58, 124, 195, 0.53)"></path>
            <path d="M407.5 325.255 L407.5 347.245" stroke-width="18.75" stroke="rgba(58, 124, 195, 0.53)"></path>
            <path d="M432.5 231.125 L432.5 249.875" stroke-width="18.75" stroke="rgba(58, 124, 195, 0.53)"></path>
            <path d="M432.5 278 L432.5 328.875" stroke-width="18.75" stroke="rgba(221, 17, 51, 0.46)"></path>
            <path d="M457.5 169.245 L457.5 187.995" stroke-width="18.75" stroke="rgba(221, 17, 51, 0.46)"></path>
            <path d="M457.5 216.12 L457.5 253.62" stroke-width="18.75" stroke="rgba(58, 124, 195, 0.53)"></path>
            <path d="M457.5 281.745 L457.5 390.755" stroke-width="18.75" stroke="rgba(58, 124, 195, 0.53)"></path>
            <path d="M482.5 214.405 L482.5 345.605" stroke-width="18.75" stroke="rgba(221, 17, 51, 0.46)"></path>
            <path d="M507.5 166.215 L507.5 184.965" stroke-width="18.75" stroke="rgba(221, 17, 51, 0.46)"></path>
            <path d="M507.5 213.09 L507.5 288.09000000000003" stroke-width="18.75" stroke="rgba(221, 17, 51, 0.46)"></path>
            <path d="M507.5 316.21500000000003 L507.5 393.785" stroke-width="18.75" stroke="rgba(221, 17, 51, 0.46)"></path>
            <path d="M532.5 183.845 L532.5 376.155" stroke-width="18.75" stroke="rgba(221, 17, 51, 0.46)"></path>
            <path d="M557.5 164.055 L557.5 395.945" stroke-width="18.75" stroke="rgba(221, 17, 51, 0.46)"></path>
            <path d="M582.5 174.205 L582.5 385.795" stroke-width="18.75" stroke="rgba(58, 124, 195, 0.53)"></path>
            <path d="M607.5 190.015 L607.5 227.515" stroke-width="18.75" stroke="rgba(221, 17, 51, 0.46)"></path>
            <path d="M607.5 255.64 L607.5 311.89" stroke-width="18.75" stroke="rgba(58, 124, 195, 0.53)"></path>
            <path d="M607.5 340.015 L607.5 369.985" stroke-width="18.75" stroke="rgba(58, 124, 195, 0.53)"></path>
            <path d="M632.5 269.565 L632.5 290.435" stroke-width="18.75" stroke="rgba(58, 124, 195, 0.53)"></path>
            <path d="M657.5 158.055 L657.5 289.305" stroke-width="18.75" stroke="rgba(58, 124, 195, 0.53)"></path>
            <path d="M657.5 317.43 L657.5 354.93" stroke-width="18.75" stroke="rgba(58, 124, 195, 0.53)"></path>
            <path d="M657.5 383.055 L657.5 401.945" stroke-width="18.75" stroke="rgba(58, 124, 195, 0.53)"></path>
            <path d="M682.5 153.305 L682.5 209.555" stroke-width="18.75" stroke="rgba(221, 17, 51, 0.46)"></path>
            <path d="M682.5 237.68 L682.5 406.695" stroke-width="18.75" stroke="rgba(58, 124, 195, 0.53)"></path>
            <path d="M707.5 168.195 L707.5 224.445" stroke-width="18.75" stroke="rgba(221, 17, 51, 0.46)"></path>
            <path d="M707.5 252.57 L707.5 271.32" stroke-width="18.75" stroke="rgba(221, 17, 51, 0.46)"></path>
            <path d="M707.5 299.445 L707.5 391.805" stroke-width="18.75" stroke="rgba(221, 17, 51, 0.46)"></path>
            <path d="M732.5 192.605 L732.5 367.395" stroke-width="18.75" stroke="rgba(58, 124, 195, 0.53)"></path>
            <path d="M757.5 272.635 L757.5 287.365" stroke-width="18.75" stroke="rgba(221, 17, 51, 0.46)"></path>
            <path d="M782.5 197.935 L782.5 216.685" stroke-width="18.75" stroke="rgba(58, 124, 195, 0.53)"></path>
            <path d="M782.5 244.81 L782.5 282.31" stroke-width="18.75" stroke="rgba(58, 124, 195, 0.53)"></path>
            <path d="M782.5 310.435 L782.5 362.065" stroke-width="18.75" stroke="rgba(58, 124, 195, 0.53)"></path>
            <path d="M807.5 198.075 L807.5 361.925" stroke-width="18.75" stroke="rgba(221, 17, 51, 0.46)"></path>
            <path d="M832.5 202.495 L832.5 221.245" stroke-width="18.75" stroke="rgba(221, 17, 51, 0.46)"></path>
            <path d="M832.5 249.37 L832.5 268.12" stroke-width="18.75" stroke="rgba(58, 124, 195, 0.53)"></path>
            <path d="M832.5 296.245 L832.5 357.505" stroke-width="18.75" stroke="rgba(58, 124, 195, 0.53)"></path>
            <path d="M857.5 223.465 L857.5 242.215" stroke-width="18.75" stroke="rgba(221, 17, 51, 0.46)"></path>
            <path d="M857.5 270.34000000000003 L857.5 289.09000000000003" stroke-width="18.75" stroke="rgba(221, 17, 51, 0.46)"></path>
            <path d="M857.5 317.21500000000003 L857.5 336.525" stroke-width="18.75" stroke="rgba(221, 17, 51, 0.46)"></path>
            <path d="M882.5 200.315 L882.5 275.315" stroke-width="18.75" stroke="rgba(221, 17, 51, 0.46)"></path>
            <path d="M882.5 303.44 L882.5 359.685" stroke-width="18.75" stroke="rgba(221, 17, 51, 0.46)"></path>
            <path d="M907.5 175.945 L907.5 213.445" stroke-width="18.75" stroke="rgba(58, 124, 195, 0.53)"></path>
            <path d="M907.5 241.57 L907.5 384.055" stroke-width="18.75" stroke="rgba(58, 124, 195, 0.53)"></path>
            <path d="M932.5 189.035 L932.5 226.535" stroke-width="18.75" stroke="rgba(221, 17, 51, 0.46)"></path>
            <path d="M932.5 254.66 L932.5 292.15999999999997" stroke-width="18.75" stroke="rgba(221, 17, 51, 0.46)"></path>
            <path d="M932.5 320.28499999999997 L932.5 370.965" stroke-width="18.75" stroke="rgba(58, 124, 195, 0.53)"></path>
            <path d="M957.5 187.315 L957.5 206.065" stroke-width="18.75" stroke="rgba(58, 124, 195, 0.53)"></path>
            <path d="M957.5 234.19 L957.5 271.69" stroke-width="18.75" stroke="rgba(221, 17, 51, 0.46)"></path>
            <path d="M957.5 299.815 L957.5 372.685" stroke-width="18.75" stroke="rgba(221, 17, 51, 0.46)"></path>
            <path d="M982.5 256.875 L982.5 303.125" stroke-width="18.75" stroke="rgba(221, 17, 51, 0.46)"></path>
            <path d="M1007.5 233.785 L1007.5 326.225" stroke-width="18.75" stroke="rgba(221, 17, 51, 0.46)"></path>
            <path d="M1032.5 161.055 L1032.5 236.055" stroke-width="18.75" stroke="rgba(221, 17, 51, 0.46)"></path>
            <path d="M1032.5 264.18 L1032.5 339.18" stroke-width="18.75" stroke="rgba(58, 124, 195, 0.53)"></path>
            <path d="M1032.5 367.305 L1032.5 398.945" stroke-width="18.75" stroke="rgba(221, 17, 51, 0.46)"></path>
            <path d="M1057.5 274.505 L1057.5 285.495" stroke-width="18.75" stroke="rgba(221, 17, 51, 0.46)"></path>
        </g>
    </g>
    <defs>
        <mask id="SvgjsMask1037">
            <rect width="1440" height="560" fill="#ffffff"></rect>
        </mask>
    </defs>
</svg>